<svg width="476.096" height="476.00000000000006" xmlns="http://www.w3.org/2000/svg">

 <g>
  <title>background</title>
  <rect fill="none" id="canvas_background" height="402" width="582" y="-1" x="-1"/>
 </g>
 <g>
  <title>Layer 1</title>
  <g id="svg_1">
   <path id="svg_2" fill="#b01116" d="m294.0625,267.232196l-32,0c-4.41797,0 -8,-3.58203 -8,-8l0,-258.07421l-80,46.66406l0,3.41015l40,0c4.41797,0 8,3.58204 8,8l0,200c0,4.41797 -3.58203,8 -8,8l-32,0l0,16l112,0l0,-16zm0,0"/>
   <path id="svg_3" fill="#b01116" d="m393.56641,357.407986c6.59765,-11.10157 12.0039,-22.86719 16.1289,-35.10547c35.25391,1.35156 64.95313,-26.07813 66.40235,-61.32813c-25.09766,-1.01562 -48.46875,12.75391 -59.73829,35.19922c3.47266,-19.53906 3.72266,-39.51953 0.7461,-59.14062c31.88281,-9.64063 51.04297,-42.1211 44.05469,-74.69141c-25.08985,5.41016 -44.51954,25.28516 -49.35938,50.48828c-2.76172,-9.57812 -6.28516,-18.92187 -10.53516,-27.94141l-4.05078,-8.34375c7.40625,-30.61328 -8.57812,-62.05468 -37.67187,-74.11328c-11.10547,26.89063 -2.67578,57.89063 20.51953,75.45703l6.76953,13.91797c5.97266,12.64453 10.36719,25.97266 13.07813,39.6875c-11.64063,-22.28125 -35.25,-35.6875 -60.35157,-34.26172c1.94922,33.6875 29.73828,60.0625 63.48047,60.25391c0.96094,23.58594 -3.11719,47.10156 -11.96094,68.98438c-3.46875,-28.61329 -25.64453,-51.37891 -54.15625,-55.59766c-4.72265,32.17187 15.4375,62.77344 46.86329,71.13281c-4.85547,9.23828 -10.54297,18.01172 -16.99219,26.21094c-10.13672,12.80469 -22.08594,24.05859 -35.47266,33.41406c15.21094,-29.16015 5.84375,-65.10156 -21.66406,-83.1289c-18.71875,28.58984 -11.64844,66.83984 16.04687,86.84765c-10.875,7.02344 -22.52734,12.75391 -34.72656,17.08203c-3.6875,1.28907 -5.90234,5.05078 -5.24609,8.89844s3.99609,6.66016 7.90234,6.65234c0.90235,0 1.80078,-0.15625 2.65625,-0.45703c10.83203,-3.85156 21.27735,-8.71093 31.19922,-14.51953c18.81641,28.20313 56.37109,36.82031 85.60156,19.64063c-14.24218,-24.19922 -42.59765,-36.29297 -69.92187,-29.81641c12.35937,-9.01562 23.54687,-19.53516 33.30469,-31.32031c30.05859,14.73828 66.39453,3.8164 83.35156,-25.04688c-20.54297,-12.03125 -46.06641,-11.66797 -66.25781,0.94532zm0,0"/>
   <path id="svg_4" fill="#b01116" d="m185.15234,422.431416c-12.19921,-4.32031 -23.85156,-10.04297 -34.72656,-17.05468c27.69531,-20.01172 34.76172,-58.26172 16.04688,-86.85157c-27.4961,18.02735 -36.85938,53.95313 -21.66407,83.10547c-13.38671,-9.34765 -25.33593,-20.60156 -35.47265,-33.39844c-6.45313,-8.19921 -12.14063,-16.97265 -16.99219,-26.21093c31.42578,-8.35938 51.58203,-38.96094 46.86328,-71.13282c-28.51172,4.21875 -50.6875,26.98438 -54.16015,55.59766c-8.85547,-21.87891 -12.94532,-45.39844 -12,-68.98437c33.73828,-0.21094 61.51562,-26.57422 63.48828,-60.25391c-25.11328,-1.4375 -48.73438,11.98047 -60.35938,34.28906c2.71485,-13.70703 7.10938,-27.02734 13.08985,-39.65625l6.79687,-13.99219c23.19922,-17.5664 31.62891,-48.5664 20.52344,-75.45703c-29.08985,12.0625 -45.0625,43.50782 -37.65625,74.11328l-4.08203,8.40625c-4.2461,8.9961 -7.76563,18.32032 -10.51953,27.87891c-4.84375,-25.21484 -24.28907,-45.09375 -49.39063,-50.49609c-6.98437,32.5625 12.17188,65.03906 44.04688,74.67968c-2.97657,19.625 -2.72266,39.60547 0.75,59.14454c-11.26954,-22.44532 -34.63672,-36.21485 -59.73438,-35.19922c1.44531,35.25 31.14844,62.67968 66.39844,61.32812c4.13281,12.23438 9.53906,24.00391 16.13672,35.10547c-20.19141,-12.64453 -45.73438,-13.02344 -66.29688,-0.98437c16.95313,28.88281 53.3086,39.80859 83.37891,25.0625c9.7539,11.79687 20.9414,22.33203 33.30469,31.35937c-27.32422,-6.47656 -55.67969,5.61719 -69.92188,29.81641c29.23047,17.17968 66.78125,8.5625 85.60156,-19.64063c9.92188,5.8086 20.36719,10.66797 31.19922,14.51953c0.85156,0.30078 1.75,0.45703 2.65625,0.45703c3.90235,0.00782 7.24219,-2.80468 7.90235,-6.65234c0.65625,-3.84766 -1.5625,-7.60937 -5.2461,-8.89844l0.03906,0zm0,0"/>
  </g>
 </g>
</svg>